<mxfile host="65bd71144e">
    <diagram name="PÃ¡gina-1" id="TTp-K46U8V-8WiusqMop">
        <mxGraphModel dx="-3265" dy="1022" grid="1" gridSize="10" guides="1" tooltips="1" connect="1" arrows="1" fold="1" page="1" pageScale="1" pageWidth="827" pageHeight="1169" math="0" shadow="0">
            <root>
                <mxCell id="0"/>
                <mxCell id="1" parent="0"/>
                <mxCell id="441" value="" style="group" vertex="1" connectable="0" parent="1">
                    <mxGeometry x="7110" y="40" width="230" height="70" as="geometry"/>
                </mxCell>
                <mxCell id="442" value="" style="whiteSpace=wrap;html=1;strokeColor=#494949;fillColor=#494949;container=0;strokeWidth=2;" vertex="1" parent="441">
                    <mxGeometry y="29.93" width="229.99999999999997" height="30" as="geometry"/>
                </mxCell>
                <mxCell id="443" value="&lt;font color=&quot;#494949&quot; data-font-src=&quot;https://fonts.googleapis.com/css?family=Nunito&quot; face=&quot;Nunito&quot;&gt;+&amp;nbsp;execute(a: number, b: number): number&lt;br&gt;&lt;/font&gt;" style="rounded=1;whiteSpace=wrap;html=1;arcSize=6;fillColor=#F7F7F7;strokeColor=#494949;align=left;spacingLeft=2;container=0;strokeWidth=2;absoluteArcSize=1;" vertex="1" parent="441">
                    <mxGeometry y="40" width="230" height="30" as="geometry"/>
                </mxCell>
                <mxCell id="444" value="&lt;font face=&quot;Nunito&quot; color=&quot;#494949&quot;&gt;&amp;lt;&amp;lt;interface&amp;gt;&amp;gt;&lt;br&gt;&lt;b&gt;Strategy&lt;/b&gt;&lt;br&gt;&lt;/font&gt;" style="rounded=1;whiteSpace=wrap;html=1;arcSize=6;fillColor=#F7F7F7;strokeColor=#494949;container=0;strokeWidth=2;absoluteArcSize=1;" vertex="1" parent="441">
                    <mxGeometry width="230" height="40" as="geometry"/>
                </mxCell>
                <mxCell id="445" value="" style="group" vertex="1" connectable="0" parent="1">
                    <mxGeometry x="6820" y="200" width="230" height="90" as="geometry"/>
                </mxCell>
                <mxCell id="446" value="" style="whiteSpace=wrap;html=1;fillColor=#494949;strokeColor=#494949;container=0;strokeWidth=2;" vertex="1" parent="445">
                    <mxGeometry y="27.5" width="229.99999999999997" height="60" as="geometry"/>
                </mxCell>
                <mxCell id="447" value="&lt;font face=&quot;Nunito&quot; color=&quot;#494949&quot;&gt;&lt;b&gt;AddStrategy&lt;/b&gt;&lt;/font&gt;" style="rounded=1;whiteSpace=wrap;html=1;arcSize=5;fillColor=#F7F7F7;strokeColor=#494949;strokeWidth=2;container=0;absoluteArcSize=1;" vertex="1" parent="445">
                    <mxGeometry width="229.99999999999997" height="30" as="geometry"/>
                </mxCell>
                <mxCell id="448" value="&lt;font face=&quot;Nunito&quot;&gt;...&lt;/font&gt;" style="rounded=1;whiteSpace=wrap;html=1;arcSize=6;fillColor=#F7F7F7;strokeColor=#494949;align=left;perimeterSpacing=0;spacingLeft=2;fontColor=#494949;strokeWidth=2;container=0;absoluteArcSize=1;" vertex="1" parent="445">
                    <mxGeometry y="30" width="229.99999999999997" height="30" as="geometry"/>
                </mxCell>
                <mxCell id="449" value="&lt;font face=&quot;Nunito&quot; color=&quot;#494949&quot;&gt;+ execute(a: number, b: number): number&lt;br&gt;&lt;/font&gt;" style="rounded=1;whiteSpace=wrap;html=1;arcSize=6;fillColor=#F7F7F7;strokeColor=#494949;align=left;spacingLeft=2;container=0;strokeWidth=2;absoluteArcSize=1;" vertex="1" parent="445">
                    <mxGeometry y="60" width="229.99999999999997" height="30" as="geometry"/>
                </mxCell>
                <mxCell id="450" value="" style="group" vertex="1" connectable="0" parent="1">
                    <mxGeometry x="7110" y="200" width="230" height="90" as="geometry"/>
                </mxCell>
                <mxCell id="451" value="" style="whiteSpace=wrap;html=1;fillColor=#494949;strokeColor=#494949;container=0;strokeWidth=2;" vertex="1" parent="450">
                    <mxGeometry y="27.5" width="229.99999999999997" height="60" as="geometry"/>
                </mxCell>
                <mxCell id="452" value="&lt;font face=&quot;Nunito&quot; color=&quot;#494949&quot;&gt;&lt;b&gt;SubtractStrategy&lt;/b&gt;&lt;/font&gt;" style="rounded=1;whiteSpace=wrap;html=1;arcSize=5;fillColor=#F7F7F7;strokeColor=#494949;strokeWidth=2;container=0;absoluteArcSize=1;" vertex="1" parent="450">
                    <mxGeometry width="229.99999999999997" height="30" as="geometry"/>
                </mxCell>
                <mxCell id="453" value="&lt;font face=&quot;Nunito&quot;&gt;...&lt;/font&gt;" style="rounded=1;whiteSpace=wrap;html=1;arcSize=6;fillColor=#F7F7F7;strokeColor=#494949;align=left;perimeterSpacing=0;spacingLeft=2;fontColor=#494949;strokeWidth=2;container=0;absoluteArcSize=1;" vertex="1" parent="450">
                    <mxGeometry y="30" width="229.99999999999997" height="30" as="geometry"/>
                </mxCell>
                <mxCell id="454" value="&lt;font face=&quot;Nunito&quot; color=&quot;#494949&quot;&gt;+ execute(a: number, b: number): number&lt;br&gt;&lt;/font&gt;" style="rounded=1;whiteSpace=wrap;html=1;arcSize=6;fillColor=#F7F7F7;strokeColor=#494949;align=left;spacingLeft=2;container=0;strokeWidth=2;absoluteArcSize=1;" vertex="1" parent="450">
                    <mxGeometry y="60" width="229.99999999999997" height="30" as="geometry"/>
                </mxCell>
                <mxCell id="455" value="" style="group" vertex="1" connectable="0" parent="1">
                    <mxGeometry x="7400" y="200" width="230" height="90" as="geometry"/>
                </mxCell>
                <mxCell id="456" value="" style="whiteSpace=wrap;html=1;fillColor=#494949;strokeColor=#494949;container=0;strokeWidth=2;" vertex="1" parent="455">
                    <mxGeometry y="27.5" width="229.99999999999997" height="60" as="geometry"/>
                </mxCell>
                <mxCell id="457" value="&lt;font face=&quot;Nunito&quot; color=&quot;#494949&quot;&gt;&lt;b&gt;MultiplyStrategy&lt;/b&gt;&lt;/font&gt;" style="rounded=1;whiteSpace=wrap;html=1;arcSize=5;fillColor=#F7F7F7;strokeColor=#494949;strokeWidth=2;container=0;absoluteArcSize=1;" vertex="1" parent="455">
                    <mxGeometry width="229.99999999999997" height="30" as="geometry"/>
                </mxCell>
                <mxCell id="458" value="&lt;font face=&quot;Nunito&quot;&gt;...&lt;/font&gt;" style="rounded=1;whiteSpace=wrap;html=1;arcSize=6;fillColor=#F7F7F7;strokeColor=#494949;align=left;perimeterSpacing=0;spacingLeft=2;fontColor=#494949;strokeWidth=2;container=0;absoluteArcSize=1;" vertex="1" parent="455">
                    <mxGeometry y="30" width="229.99999999999997" height="30" as="geometry"/>
                </mxCell>
                <mxCell id="459" value="&lt;font face=&quot;Nunito&quot; color=&quot;#494949&quot;&gt;+ execute(a: number, b: number): number&lt;br&gt;&lt;/font&gt;" style="rounded=1;whiteSpace=wrap;html=1;arcSize=6;fillColor=#F7F7F7;strokeColor=#494949;align=left;spacingLeft=2;container=0;strokeWidth=2;absoluteArcSize=1;" vertex="1" parent="455">
                    <mxGeometry y="60" width="229.99999999999997" height="30" as="geometry"/>
                </mxCell>
                <mxCell id="460" value="" style="group" vertex="1" connectable="0" parent="1">
                    <mxGeometry x="6470" y="20" width="280" height="90" as="geometry"/>
                </mxCell>
                <mxCell id="461" value="" style="whiteSpace=wrap;html=1;fillColor=#494949;strokeColor=#494949;container=0;strokeWidth=2;" vertex="1" parent="460">
                    <mxGeometry y="27.5" width="280" height="60" as="geometry"/>
                </mxCell>
                <mxCell id="462" value="&lt;font face=&quot;Nunito&quot; color=&quot;#494949&quot;&gt;&lt;b&gt;Context&lt;/b&gt;&lt;/font&gt;" style="rounded=1;whiteSpace=wrap;html=1;arcSize=5;fillColor=#F7F7F7;strokeColor=#494949;strokeWidth=2;container=0;absoluteArcSize=1;" vertex="1" parent="460">
                    <mxGeometry width="280" height="30" as="geometry"/>
                </mxCell>
                <mxCell id="463" value="&lt;font face=&quot;Nunito&quot;&gt;- strategy: Strategy&lt;/font&gt;" style="rounded=1;whiteSpace=wrap;html=1;arcSize=6;fillColor=#F7F7F7;strokeColor=#494949;align=left;perimeterSpacing=0;spacingLeft=2;fontColor=#494949;strokeWidth=2;container=0;absoluteArcSize=1;" vertex="1" parent="460">
                    <mxGeometry y="30" width="280" height="30" as="geometry"/>
                </mxCell>
                <mxCell id="464" value="&lt;font face=&quot;Nunito&quot; color=&quot;#494949&quot;&gt;+ setStrategy(strategy: Strategy)&lt;br&gt;+ executeStrategy(a: number, b: number): number&lt;br&gt;&lt;/font&gt;" style="rounded=1;whiteSpace=wrap;html=1;arcSize=6;fillColor=#F7F7F7;strokeColor=#494949;align=left;spacingLeft=2;container=0;strokeWidth=2;absoluteArcSize=1;" vertex="1" parent="460">
                    <mxGeometry y="60" width="280" height="40" as="geometry"/>
                </mxCell>
                <mxCell id="466" style="edgeStyle=orthogonalEdgeStyle;rounded=0;html=1;entryX=0;entryY=1;entryDx=0;entryDy=0;endArrow=open;strokeColor=#666666;fontSource=https%3A%2F%2Ffonts.googleapis.com%2Fcss%3Ffamily%3DNunito;endFill=0;strokeWidth=2;startArrow=diamondThin;startFill=0;startSize=15;endSize=10;sourcePerimeterSpacing=1;targetPerimeterSpacing=1;" edge="1" parent="1" source="463" target="444">
                    <mxGeometry relative="1" as="geometry">
                        <Array as="points">
                            <mxPoint x="6895" y="65"/>
                            <mxPoint x="6895" y="80"/>
                        </Array>
                    </mxGeometry>
                </mxCell>
                <mxCell id="467" style="edgeStyle=orthogonalEdgeStyle;rounded=0;html=1;endArrow=block;strokeColor=#666666;fontSource=https%3A%2F%2Ffonts.googleapis.com%2Fcss%3Ffamily%3DFira%2BCode%2BMedium;startArrow=none;startFill=0;endFill=0;targetPerimeterSpacing=0;strokeWidth=2;endSize=10;startSize=10;sourcePerimeterSpacing=0;dashed=1;" edge="1" parent="1" source="452" target="443">
                    <mxGeometry relative="1" as="geometry"/>
                </mxCell>
                <mxCell id="469" style="edgeStyle=orthogonalEdgeStyle;rounded=0;html=1;dashed=1;endArrow=none;endFill=0;strokeColor=#666666;fontSource=https%3A%2F%2Ffonts.googleapis.com%2Fcss%3Ffamily%3DFira%2BCode%2BMedium;startArrow=none;startFill=0;targetPerimeterSpacing=0;strokeWidth=2;endSize=10;startSize=10;sourcePerimeterSpacing=0;" edge="1" parent="1" source="447">
                    <mxGeometry relative="1" as="geometry">
                        <mxPoint x="7225" y="160" as="targetPoint"/>
                        <Array as="points">
                            <mxPoint x="6935" y="160"/>
                            <mxPoint x="7225" y="160"/>
                        </Array>
                    </mxGeometry>
                </mxCell>
                <mxCell id="470" style="edgeStyle=orthogonalEdgeStyle;rounded=0;html=1;dashed=1;endArrow=none;endFill=0;strokeColor=#666666;fontSource=https%3A%2F%2Ffonts.googleapis.com%2Fcss%3Ffamily%3DFira%2BCode%2BMedium;startArrow=none;startFill=0;targetPerimeterSpacing=0;strokeWidth=2;endSize=10;startSize=10;sourcePerimeterSpacing=0;" edge="1" parent="1" source="457">
                    <mxGeometry relative="1" as="geometry">
                        <mxPoint x="7225" y="160" as="targetPoint"/>
                        <Array as="points">
                            <mxPoint x="7515" y="160"/>
                        </Array>
                    </mxGeometry>
                </mxCell>
                <mxCell id="472" style="edgeStyle=orthogonalEdgeStyle;rounded=0;html=1;dashed=1;fontFamily=Helvetica;fontSource=https%3A%2F%2Ffonts.googleapis.com%2Fcss%3Ffamily%3DFira%2BCode%2BMedium;endArrow=oval;endFill=0;strokeColor=#C3C3C3;startArrow=none;startFill=0;strokeWidth=2;startSize=6;endSize=6;sourcePerimeterSpacing=2;targetPerimeterSpacing=1;exitX=0.5;exitY=0;exitDx=0;exitDy=0;" edge="1" parent="1" source="471">
                    <mxGeometry relative="1" as="geometry">
                        <mxPoint x="6483" y="111" as="targetPoint"/>
                        <Array as="points">
                            <mxPoint x="6275" y="180"/>
                            <mxPoint x="6483" y="180"/>
                        </Array>
                    </mxGeometry>
                </mxCell>
                <mxCell id="471" value="&lt;div style=&quot;line-height: 26px;&quot;&gt;&lt;div style=&quot;line-height: 26px;&quot;&gt;&lt;div style=&quot;line-height: 26px;&quot;&gt;&lt;div style=&quot;line-height: 147%;&quot;&gt;&lt;div style=&quot;line-height: 147%;&quot;&gt;&lt;div style=&quot;line-height: 137%;&quot;&gt;&lt;div style=&quot;line-height: 137%;&quot;&gt;&lt;div style=&quot;line-height: 157%;&quot;&gt;&lt;div style=&quot;line-height: 157%;&quot;&gt;&lt;div style=&quot;line-height: 157%;&quot;&gt;&lt;div style=&quot;line-height: 157%;&quot;&gt;&lt;div style=&quot;line-height: 137%;&quot;&gt;&lt;div style=&quot;line-height: 137%;&quot;&gt;&lt;div style=&quot;line-height: 137%;&quot;&gt;&lt;font data-font-src=&quot;https://fonts.googleapis.com/css?family=Fira+Code+Medium&quot; face=&quot;Fira Code Medium&quot;&gt;if (!this.strategy) {&lt;/font&gt;&lt;/div&gt;&lt;div style=&quot;line-height: 137%;&quot;&gt;&lt;font data-font-src=&quot;https://fonts.googleapis.com/css?family=Fira+Code+Medium&quot; face=&quot;Fira Code Medium&quot;&gt;&amp;nbsp; &amp;nbsp; throw new Error(&quot;Strategy not set&quot;);&lt;/font&gt;&lt;/div&gt;&lt;div style=&quot;line-height: 137%;&quot;&gt;&lt;font data-font-src=&quot;https://fonts.googleapis.com/css?family=Fira+Code+Medium&quot; face=&quot;Fira Code Medium&quot;&gt;}&lt;/font&gt;&lt;/div&gt;&lt;div style=&quot;line-height: 137%;&quot;&gt;&lt;font data-font-src=&quot;https://fonts.googleapis.com/css?family=Fira+Code+Medium&quot; face=&quot;Fira Code Medium&quot;&gt;return this.strategy.execute(a, b);&lt;/font&gt;&lt;/div&gt;&lt;/div&gt;&lt;/div&gt;&lt;/div&gt;&lt;/div&gt;&lt;/div&gt;&lt;/div&gt;&lt;/div&gt;&lt;/div&gt;&lt;/div&gt;&lt;/div&gt;&lt;/div&gt;&lt;/div&gt;&lt;/div&gt;" style="rounded=0;whiteSpace=wrap;html=1;fontColor=#494949;strokeColor=#C3C3C3;fillColor=#EBEBEB;align=left;verticalAlign=middle;spacingLeft=2;spacingRight=1;strokeWidth=2;" vertex="1" parent="1">
                    <mxGeometry x="6120" y="235" width="310" height="80" as="geometry"/>
                </mxCell>
                <mxCell id="474" style="edgeStyle=orthogonalEdgeStyle;rounded=0;html=1;entryX=0.5;entryY=1;entryDx=0;entryDy=0;fontFamily=Helvetica;fontSource=https%3A%2F%2Ffonts.googleapis.com%2Fcss%3Ffamily%3DFira%2BCode%2BMedium;startArrow=none;startFill=0;endArrow=open;endFill=0;strokeColor=#666666;targetPerimeterSpacing=0;strokeWidth=2;endSize=10;startSize=10;sourcePerimeterSpacing=0;" edge="1" parent="1" source="473" target="464">
                    <mxGeometry relative="1" as="geometry"/>
                </mxCell>
                <mxCell id="475" style="edgeStyle=orthogonalEdgeStyle;rounded=0;html=1;entryX=0.5;entryY=1;entryDx=0;entryDy=0;fontFamily=Helvetica;fontSource=https%3A%2F%2Ffonts.googleapis.com%2Fcss%3Ffamily%3DFira%2BCode%2BMedium;startArrow=none;startFill=0;endArrow=open;endFill=0;strokeColor=#666666;targetPerimeterSpacing=0;strokeWidth=2;endSize=10;startSize=10;sourcePerimeterSpacing=0;dashed=1;exitX=0.5;exitY=1;exitDx=0;exitDy=0;" edge="1" parent="1" source="473" target="449">
                    <mxGeometry relative="1" as="geometry">
                        <Array as="points">
                            <mxPoint x="6610" y="340"/>
                            <mxPoint x="6935" y="340"/>
                        </Array>
                    </mxGeometry>
                </mxCell>
                <mxCell id="476" style="edgeStyle=orthogonalEdgeStyle;rounded=0;html=1;entryX=0.5;entryY=1;entryDx=0;entryDy=0;fontFamily=Helvetica;fontSource=https%3A%2F%2Ffonts.googleapis.com%2Fcss%3Ffamily%3DFira%2BCode%2BMedium;startArrow=none;startFill=0;endArrow=open;endFill=0;strokeColor=#666666;targetPerimeterSpacing=0;strokeWidth=2;endSize=10;startSize=10;sourcePerimeterSpacing=0;dashed=1;exitX=0.5;exitY=1;exitDx=0;exitDy=0;" edge="1" parent="1" source="473" target="454">
                    <mxGeometry relative="1" as="geometry">
                        <Array as="points">
                            <mxPoint x="6610" y="340"/>
                            <mxPoint x="7225" y="340"/>
                        </Array>
                    </mxGeometry>
                </mxCell>
                <mxCell id="477" style="edgeStyle=orthogonalEdgeStyle;rounded=0;html=1;entryX=0.5;entryY=1;entryDx=0;entryDy=0;fontFamily=Helvetica;fontSource=https%3A%2F%2Ffonts.googleapis.com%2Fcss%3Ffamily%3DFira%2BCode%2BMedium;startArrow=none;startFill=0;endArrow=open;endFill=0;strokeColor=#666666;targetPerimeterSpacing=0;strokeWidth=2;endSize=10;startSize=10;sourcePerimeterSpacing=0;dashed=1;exitX=0.5;exitY=1;exitDx=0;exitDy=0;" edge="1" parent="1" source="473" target="459">
                    <mxGeometry relative="1" as="geometry">
                        <Array as="points">
                            <mxPoint x="6610" y="340"/>
                            <mxPoint x="7515" y="340"/>
                        </Array>
                    </mxGeometry>
                </mxCell>
                <mxCell id="473" value="&lt;font face=&quot;Nunito&quot; color=&quot;#494949&quot;&gt;&lt;b&gt;Client&lt;/b&gt;&lt;/font&gt;" style="rounded=1;whiteSpace=wrap;html=1;arcSize=5;fillColor=#F7F7F7;strokeColor=#494949;strokeWidth=2;container=0;absoluteArcSize=1;" vertex="1" parent="1">
                    <mxGeometry x="6580" y="260" width="60" height="30" as="geometry"/>
                </mxCell>
                <mxCell id="479" style="edgeStyle=orthogonalEdgeStyle;rounded=0;html=1;entryX=1;entryY=0.5;entryDx=0;entryDy=0;dashed=1;fontFamily=Helvetica;fontSource=https%3A%2F%2Ffonts.googleapis.com%2Fcss%3Ffamily%3DFira%2BCode%2BMedium;startArrow=none;startFill=0;endArrow=none;endFill=0;exitX=0.5;exitY=0;exitDx=0;exitDy=0;strokeColor=#C3C3C3;strokeWidth=2;startSize=6;endSize=6;sourcePerimeterSpacing=2;targetPerimeterSpacing=1;" edge="1" parent="1" source="478" target="459">
                    <mxGeometry relative="1" as="geometry"/>
                </mxCell>
                <mxCell id="478" value="&lt;div style=&quot;line-height: 26px;&quot;&gt;&lt;div style=&quot;line-height: 26px;&quot;&gt;&lt;div style=&quot;line-height: 26px;&quot;&gt;&lt;div style=&quot;line-height: 147%;&quot;&gt;&lt;div style=&quot;line-height: 147%;&quot;&gt;&lt;div style=&quot;line-height: 137%;&quot;&gt;&lt;div style=&quot;line-height: 137%;&quot;&gt;&lt;div style=&quot;line-height: 157%;&quot;&gt;&lt;div style=&quot;line-height: 157%;&quot;&gt;&lt;div style=&quot;line-height: 157%;&quot;&gt;&lt;div style=&quot;line-height: 157%;&quot;&gt;&lt;div style=&quot;line-height: 137%;&quot;&gt;&lt;div style=&quot;line-height: 137%;&quot;&gt;&lt;div style=&quot;line-height: 137%;&quot;&gt;&lt;div style=&quot;line-height: 137%;&quot;&gt;&lt;font data-font-src=&quot;https://fonts.googleapis.com/css?family=Fira+Code+Medium&quot; face=&quot;Fira Code Medium&quot;&gt;execute(a: number, b: number): number {&lt;/font&gt;&lt;/div&gt;&lt;div style=&quot;line-height: 137%;&quot;&gt;&lt;font data-font-src=&quot;https://fonts.googleapis.com/css?family=Fira+Code+Medium&quot; face=&quot;Fira Code Medium&quot;&gt;&amp;nbsp; &amp;nbsp; return a * b;&lt;/font&gt;&lt;/div&gt;&lt;div style=&quot;line-height: 137%;&quot;&gt;&lt;font data-font-src=&quot;https://fonts.googleapis.com/css?family=Fira+Code+Medium&quot; face=&quot;Fira Code Medium&quot;&gt;}&lt;/font&gt;&lt;/div&gt;&lt;/div&gt;&lt;/div&gt;&lt;/div&gt;&lt;/div&gt;&lt;/div&gt;&lt;/div&gt;&lt;/div&gt;&lt;/div&gt;&lt;/div&gt;&lt;/div&gt;&lt;/div&gt;&lt;/div&gt;&lt;/div&gt;&lt;/div&gt;" style="rounded=0;whiteSpace=wrap;html=1;fontColor=#494949;strokeColor=#C3C3C3;fillColor=#EBEBEB;align=left;verticalAlign=middle;spacingLeft=2;spacingRight=1;strokeWidth=2;" vertex="1" parent="1">
                    <mxGeometry x="7690" y="331.25" width="300" height="60" as="geometry"/>
                </mxCell>
            </root>
        </mxGraphModel>
    </diagram>
</mxfile>
